<?xml version="1.0" encoding="iso-8859-1"?>
<!-- Uploaded to: SVG Repo, www.svgrepo.com, Generator: SVG Repo Mixer Tools -->
<svg fill="#000000" height="800px" width="800px" version="1.1" id="Layer_1" xmlns="http://www.w3.org/2000/svg" xmlns:xlink="http://www.w3.org/1999/xlink" 
	 viewBox="0 0 512.009 512.009" xml:space="preserve">
<g transform="translate(0 -1)">
	<g>
		<g>
			<path d="M320,227.572c0-35.285-28.715-64-64-64s-64,28.715-64,64c0,27.82,17.856,51.544,42.703,60.342
				c-0.008,0.241-0.036,0.477-0.036,0.721v21.333c0,11.776,9.536,21.333,21.333,21.333s21.333-9.557,21.333-21.333v-21.333
				c0-0.243-0.028-0.479-0.036-0.721C302.144,279.115,320,255.392,320,227.572z M256,248.905c-11.776,0-21.333-9.579-21.333-21.333
				c0-11.755,9.557-21.333,21.333-21.333s21.333,9.579,21.333,21.333C277.333,239.326,267.776,248.905,256,248.905z"/>
			<path d="M128,416.634h-21.333c-11.797,0-21.333,9.557-21.333,21.333s9.536,21.333,21.333,21.333H128
				c11.797,0,21.333-9.557,21.333-21.333S139.797,416.634,128,416.634z"/>
			<path d="M42.667,416.634H21.333C9.536,416.634,0,426.191,0,437.967s9.536,21.333,21.333,21.333h21.333
				c11.797,0,21.333-9.557,21.333-21.333S54.464,416.634,42.667,416.634z"/>
			<path d="M490.667,416.634h-21.333c-11.797,0-21.333,9.557-21.333,21.333s9.536,21.333,21.333,21.333h21.333
				c11.797,0,21.333-9.557,21.333-21.333S502.464,416.634,490.667,416.634z"/>
			<path d="M405.333,416.634H384c-11.797,0-21.333,9.557-21.333,21.333s9.536,21.333,21.333,21.333h21.333
				c11.797,0,21.333-9.557,21.333-21.333S417.131,416.634,405.333,416.634z"/>
			<path d="M320,416.634h-3.671c-6.439-18.151-20.845-32.557-38.996-38.996v-3.671c0-11.776-9.536-21.333-21.333-21.333
				s-21.333,9.557-21.333,21.333v3.671c-18.151,6.439-32.557,20.845-38.996,38.996H192c-11.797,0-21.333,9.557-21.333,21.333
				s9.536,21.333,21.333,21.333h3.671c8.808,24.828,32.522,42.667,60.329,42.667s51.521-17.839,60.329-42.667H320
				c11.797,0,21.333-9.557,21.333-21.333S331.797,416.634,320,416.634z M256,459.301c-11.776,0-21.333-9.579-21.333-21.333
				s9.557-21.333,21.333-21.333s21.333,9.579,21.333,21.333S267.776,459.301,256,459.301z"/>
			<path d="M512.009,251.614c0-47.125-30.805-89.707-73.856-105.28c-9.003-75.413-72.811-134.293-149.12-134.293
				c-44.523,0-87.744,20.224-116.779,53.76c-9.408-3.435-19.371-5.205-29.547-5.205c-45.973,0-83.648,36.224-85.952,81.621
				C22.793,164.105,0.009,204.553,0.009,245.001c0,60.885,50.112,128.96,117.184,128.96h53.483c11.776,0,21.333-9.557,21.333-21.333
				s-9.557-21.333-21.333-21.333h-53.483c-41.963,0-74.517-46.379-74.517-86.293c0-28.779,18.731-58.645,44.523-71.019
				c7.403-3.563,12.117-11.029,12.117-19.243l0.149-3.221c0.064-0.875,0.064-1.749,0-2.645c0-0.021-0.149-2.197-0.149-2.219
				c0-23.936,19.456-43.392,43.392-43.392c8.555,0,16.875,2.496,24,7.232c9.813,6.485,22.997,3.861,29.589-5.952
				c20.117-30.272,56.533-49.835,92.736-49.835c58.496,0,106.709,48.619,107.499,108.416c0.149,10.155,7.424,18.795,17.387,20.672
				c31.595,5.952,55.424,35.115,55.424,67.819c0,36.096-30.293,79.68-67.925,79.68h-60.075c-11.797,0-21.333,9.557-21.333,21.333
				s9.536,21.333,21.333,21.333h60.075C464.713,373.961,512.009,309.364,512.009,251.614z"/>
		</g>
	</g>
</g>
</svg>